<svg id="Layer_1" data-name="Layer 1" xmlns="http://www.w3.org/2000/svg" viewBox="0 0 4546.29 3703.49"><defs><style>.cls-1{fill:#000000;}</style></defs><title>Final2</title>
<path class="cls-1" d="M-1967.39,2247.29q298.11-1557.87,596.2-3115.73L1744.53-1456.2-1156.85-645.54Z" transform="translate(1967.39 1456.2)"/>
<polygon class="cls-1" points="986.97 2750.24 1279.96 1804.16 2036.32 1558.1 1184.44 1724.44 986.97 2750.24"/>
<polygon class="cls-1" points="1176.33 2304.74 1939.19 2050.34 2217.27 1121.17 2027.64 2138.26 1176.33 2304.74"/>
<polygon class="cls-1" points="3060.13 2654.41 2353.37 2082.1 2416.63 953.41 2217.27 2138.12 3060.13 2654.41"/>
<polygon class="cls-1" points="2377.34 2058.27 2551.45 1033.78 3330.18 1518.54 2463.51 801.56 2377.34 2058.27"/>
<polygon class="cls-1" points="3107.76 2543.23 3719.87 1756.63 4379.26 2154.36 3687.8 1612.63 3107.76 2543.23"/>
<polygon class="cls-1" points="3202.93 1184.02 3949.89 1612.96 4546.29 850.06 3965.97 1773.16 3202.93 1184.02"/>
</svg>